<svg xmlns="http://www.w3.org/2000/svg" width="31" height="31" viewBox="0 0 31 31">
  <g id="call" transform="translate(-18814 -14132)">
    <rect id="Rectangle_13591" data-name="Rectangle 13591" width="31" height="31" transform="translate(18814 14132)" fill="#fff" opacity="0"/>
    <g id="noun_call_2442988" transform="translate(18816.682 14136.598)">
      <path id="Path_55666" data-name="Path 55666" d="M17.307,21.766A9.413,9.413,0,0,1,13.176,20.1,23.09,23.09,0,0,1,9.291,16.69a57.243,57.243,0,0,1-4.145-4.718,14.476,14.476,0,0,1-2.365-4.4,6.941,6.941,0,0,1-.257-3.213,5.671,5.671,0,0,1,1.83-3.2A7.812,7.812,0,0,1,5.6.244,1.6,1.6,0,0,1,7.362.272,6.326,6.326,0,0,1,10.056,3.5a1.169,1.169,0,0,1-.129,1.182c-.312.421-.637.831-.951,1.252-.277.373-.565.739-.811,1.132a1.043,1.043,0,0,0,.011,1.222c.622.873,1.224,1.771,1.9,2.6a33.1,33.1,0,0,0,4.049,4.195c.327.281.678.53,1.027.785a.984.984,0,0,0,1.058.1,11.9,11.9,0,0,0,1.091-.611c.489-.312.969-.633,1.448-.94a1.274,1.274,0,0,1,1.331-.026,6.479,6.479,0,0,1,2.879,2.836,1.745,1.745,0,0,1-.157,1.979,5.988,5.988,0,0,1-4.8,2.6,6.814,6.814,0,0,1-.7-.046Z" fill="#fff"/>
    </g>
  </g>
</svg>
